<svg width="239" height="103" viewBox="0 0 239 103" fill="none" xmlns="http://www.w3.org/2000/svg">
<g id="36" clip-path="url(#clip0_1_13649)">
<path id="Vector" fill-rule="evenodd" clip-rule="evenodd" d="M222.3 2.86357C222.4 2.16357 222.5 1.76357 222.6 1.36357C224.5 1.66357 225.4 2.36357 225.2 4.26357C225.1 5.66357 224.6 7.06357 224.1 8.36357C223.73 9.28905 223.246 10.1384 222.764 10.9821C222.466 11.5058 222.168 12.0274 221.9 12.5636C220.7 14.6636 219.1 16.4636 216.8 17.4636C213 19.1636 209.4 17.2636 208.6 13.2636C207.8 9.46357 208.3 5.96357 211.1 3.06357C214.7 -0.936433 218.3 -1.03643 222.3 2.86357ZM26.9 13.5636C27.9 8.16357 24.6 4.06357 18.7 4.06357C18.4 4.06357 17.9 4.06357 17.3 4.16357C6.6 6.06357 1.9 14.7636 0.5 23.2636V23.4636C0.5 25.5636 1.6 26.5636 3.8 26.8636C4.3 26.8636 4.9 27.0636 5.3 27.3636C7.8 29.4636 10.6 29.4636 13.4 28.3636C17.4 26.8636 20.8 24.2636 23.4 20.8636C25 18.6636 26.4 16.2636 26.9 13.5636ZM132.012 4.80485C131.7 4.83239 131.347 4.86358 130.9 4.86358C128.7 4.66358 126.4 5.36358 124.3 6.96358C120.6 9.56358 117.5 12.8636 115.4 16.8636C114.8 18.0636 114.3 19.3636 114.1 20.6636C113.6 23.6636 115.6 25.2636 118.6 24.4636C118.9 24.3819 119.197 24.2946 119.494 24.2076L119.495 24.2075C121.378 23.6555 123.227 23.1134 125.3 24.0636C126.1 24.3636 127.2 24.1636 128.1 23.8636C129.2 23.4636 130.3 22.9636 131.3 22.2636C136 19.1636 137.4 14.4636 137.4 9.16358C137.4 6.56358 135.4 4.86358 132.7 4.76358C132.479 4.76358 132.258 4.78307 132.012 4.80485ZM66.6 28.2636C66.4823 28.3028 66.3608 28.342 66.2369 28.382C65.7292 28.5459 65.1823 28.7224 64.7 28.9636C62.9 29.8636 61.5 29.1636 61.3 27.1636C61.2 26.4636 61.3 25.6636 61.5 25.0636C62.6 20.9636 64.1 16.9636 66.5 13.4636C67 12.6636 67.6 11.8636 68.3 11.2636C68.9 10.6636 69.7 10.0636 70.4 9.76357C71.3 9.46357 72.3 9.16357 73.2 9.26357C73.5912 9.31248 73.9825 9.35873 74.3734 9.40492L74.375 9.40511L74.3753 9.40515L74.3757 9.4052L74.376 9.40524L74.3764 9.40528C76.3819 9.64231 78.3759 9.87799 80.3 10.4636C81.5 10.7636 82.2 12.1636 82.4 13.4636C82.5 14.4636 82.6 15.5636 82.4 16.5636C81.7 20.9636 76.3 26.8636 71.8 27.0636C71.4 27.0636 71 27.2414 70.6 27.4191C70.4 27.508 70.2 27.5969 70 27.6636C68.9 28.0636 67.8 28.4636 66.7 28.7636C66.7 28.7221 66.6828 28.6636 66.6627 28.5949C66.6343 28.4979 66.6 28.3807 66.6 28.2636ZM160.4 49.7636C162.1 44.6636 159.7 39.8636 154.6 38.7636C153.5 35.6636 151.3 34.8636 148.8 36.7636C147.7 37.5636 146.8 38.7636 146 39.9636C143.3 44.0636 143.9 48.5636 144.7 52.9636C144.9 54.1636 145.8 54.9636 146.9 55.3636C147.2 55.4635 147.5 55.5385 147.8 55.6135V55.6136C148.1 55.6886 148.4 55.7636 148.7 55.8636C154 57.3636 158.6 54.9636 160.4 49.7636ZM23.2 58.3636C23.2 52.7636 26.7999 47.2636 31.6 45.1636C32.3 44.8636 32.9 44.3636 33.5 43.7636C36.4 41.2636 39.8999 42.2636 40.7999 46.0636C41 47.1636 41 48.2636 40.7999 49.3636C39.8999 54.1636 37.5 58.3636 34.0999 61.8636C33.3999 62.5636 32.5 63.2636 31.6 63.7636C27.7 65.8636 23.7 63.7636 23.2 59.2636V58.3636ZM172 5.86357C168.5 6.76357 164.4 11.8636 164.5 16.0636C164.5 19.7636 166.8 22.3636 170 22.1636C171.2 22.0969 172.4 21.9413 173.6 21.7858C174.2 21.708 174.8 21.6302 175.4 21.5636C175.865 21.5636 176.27 21.3834 176.661 21.2092C176.775 21.1586 176.887 21.1086 177 21.0636C180.5 19.4636 183.9 13.8636 183.7 10.0636C183.6 6.96357 181.4 4.86357 178.3 4.96357C176.2 4.96357 174.1 5.36357 172 5.86357ZM99.3439 37.4102L99.344 37.4106C99.5187 38.2927 99.7 39.2084 99.7 40.0636C99.7 41.1636 99.9 42.1636 100.5 43.2636C101 44.1636 101.2 45.2636 101.3 46.2636C101.5 51.0636 96.5 56.2636 91.6 56.2636C88.3 56.2636 85.5 53.8636 84.8 50.5636C83.9 46.5636 86.1 41.2636 89.7 39.0636C91.1 38.1636 92.6 37.8636 94.1 38.9636C95.3 39.8636 95.7 39.6636 96.6 38.4636L98.4 36.3636C98.7 36.5636 99 36.6636 99.2 36.6636C99.2445 36.9082 99.2939 37.1578 99.3439 37.4102ZM236.678 69.2963C235.055 70.4295 233.54 71.4875 231.3 71.2636C230.4 68.7636 228.9 67.3636 226.4 67.5636C226 67.5636 225.5 67.1636 225.2 66.8636C223.9 65.5636 222.5 65.6636 221 66.2636C216.6 68.1636 214.1 74.4636 216.1 78.8636C217.8 82.6636 222.1 83.9636 225.5 81.5636C226.4 80.9636 227.2 80.1636 227.9 79.2636C228.9 78.0636 229.9 77.2636 231.5 76.7636C234.9 75.7636 237.3 73.3636 238.4 69.9636C238.463 69.6471 238.446 69.3306 238.426 68.938L238.425 68.9374C238.413 68.7099 238.4 68.4569 238.4 68.1636C237.792 68.5183 237.229 68.9117 236.678 69.2963ZM131.85 75.6636L131.851 75.6634C132.275 75.5635 132.7 75.4635 133.1 75.3636C133.1 75.1636 133.1 74.9636 133.2 74.6636C130.4 72.8636 127.3 72.5636 124.1 73.4636L123.936 73.5047C122.808 73.7889 121.845 74.0315 120.7 73.3636C119.2 72.5636 117.6 72.8636 116.1 73.7636C112.4 75.8636 110.3 81.6636 111.9 85.6636C112.4 87.0636 113.3 88.1636 114.7 88.3636C116.9 88.7636 119.2 88.7636 121.1 87.2636C123.5 85.3636 125.3 82.9636 125.5 79.8636C125.7 78.2636 126.4 77.3636 127.7 76.8636C128.6 76.5636 129.6 76.2637 130.6 75.9637V75.9636C131 75.8636 131.425 75.7636 131.85 75.6636ZM67.2457 89.7542L67.2451 89.7539H67.245L67.2448 89.7538C66.7129 89.53 66.2064 89.3168 65.7 89.0636C65.1007 90.0124 64.5014 90.9363 63.9022 91.8601L63.9021 91.8602L63.9004 91.8628L63.9 91.8635C63.3 92.7885 62.7 93.7135 62.1 94.6636C61 96.3636 59.5 97.5636 57.3 97.1636C55.1 96.7636 53.5 95.3636 53.1 93.0636C52.9 91.7636 52.9 90.3636 53.1 89.0636C53.6 86.1636 54.9 83.5636 57 81.4636C60 78.4636 63.1 78.6636 65.6 81.9636C65.7999 82.2635 66.0999 82.5635 66.3999 82.8635L66.4 82.8636C69.2 85.1636 69.4999 86.4636 68.2 90.1636C67.8701 90.017 67.5537 89.8838 67.2457 89.7542ZM17.1837 89.5473C17.3165 89.3053 17.4582 89.047 17.5999 88.7636C17.4625 88.6536 17.3175 88.5436 17.167 88.4295C16.77 88.1285 16.335 87.7986 15.8999 87.3636C13.6999 84.9636 11.8999 84.5636 8.99994 86.0636C5.49994 87.9636 3.09994 90.6636 2.39994 94.6636C2.09994 96.4636 2.09994 98.2636 3.29994 99.8636C5.89994 103.264 12.3999 103.064 14.1999 98.9636C14.6999 97.7636 15.1999 96.4636 15.5999 95.1636C15.8096 94.4297 15.9643 93.6684 16.1217 92.894C16.2646 92.191 16.4096 91.4773 16.5999 90.7636C16.7291 90.3761 16.9416 89.9887 17.1837 89.5473ZM203 28.6636C205.4 29.3636 206.7 31.8636 206 33.9636C205.5 35.5636 205.1 37.1636 204.9 38.7636C204.4 42.3636 202.6 45.0636 199.6 46.8636C196.8 48.5636 193.8 47.2636 192.6 44.1636C191.9 42.2636 192 40.3636 192.6 38.5636C194 34.5636 196.8 31.7636 200.8 30.5636C202 30.2636 202.8 29.8636 203 28.6636ZM183.6 81.3636C184.9 78.1636 184.5 75.2635 181.7 72.5636C182.4 71.3635 182.5 70.1636 181.6 69.2636C180.5 68.1636 179.2 68.1636 177.8 68.5636C177.4 68.6636 177 68.8635 176.7 69.0636C173.1 71.0636 170.8 75.8636 171.4 79.8636C171.8 82.8636 173.8 84.9636 176.3 85.2636C179.4 85.6636 182.5 83.9636 183.6 81.3636Z" fill="#437EF7"/>
</g>
<defs>
<clipPath id="clip0_1_13649">
<rect width="238" height="103" fill="white" transform="translate(0.5)"/>
</clipPath>
</defs>
</svg>
