<svg width="76" height="70" viewBox="0 0 76 70" fill="none" xmlns="http://www.w3.org/2000/svg">
<g id="83" clip-path="url(#clip0_1_13683)">
<path id="Vector" fill-rule="evenodd" clip-rule="evenodd" d="M3.81365 57.598C8.32127 40.1674 15.7109 24.171 28.0351 10.6301C14.9326 23.7834 7.68208 39.8487 3.81365 57.598ZM0.508895 64.3162C0.893597 59.3616 2.19754 54.2726 3.63884 49.2093C6.83954 37.9623 11.8288 27.5474 18.6755 17.9996C23.4602 11.3271 29.0102 5.50774 36.5794 1.75543C39.0047 0.55319 41.1031 0.811063 43.2876 1.97295C44.5125 2.62377 44.9079 4.54349 43.8519 4.93937C41.1732 5.94337 39.9489 8.34434 38.1878 10.1997C32.8477 15.825 27.6932 21.5993 23.5732 28.2005C18.5703 36.2151 14.9332 44.8061 12.11 53.7563C10.7847 57.9582 9.36776 62.1351 8.37479 66.4335C8.24457 66.9984 7.43235 67.3493 7.78971 68.1135C7.82776 68.1954 7.65949 68.379 7.57268 68.5059C7.2956 68.9111 3.16495 69.5824 2.74695 69.2947C0.788354 67.9469 0.433976 67.2107 0.508895 64.3162Z" fill="#437EF7"/>
<path id="Vector_2" fill-rule="evenodd" clip-rule="evenodd" d="M43.8818 26.8723L43.5495 26.5935C42.6485 27.6419 41.7476 28.6904 40.8466 29.7388C40.9402 29.8167 41.0332 29.8959 41.1268 29.9744C42.0449 28.9402 42.9637 27.9066 43.8818 26.8723ZM39.178 32.1563C35.7258 36.507 32.6225 41.0822 30.778 46.3851C33.0757 41.3521 36.0878 36.7415 39.178 32.1563ZM51.3986 22.954C52.0698 24.9102 50.9017 25.759 49.7152 26.7678C48.5945 27.7211 48.1864 29.2733 47.1201 30.379C45.8057 31.7434 44.4351 33.2289 43.5495 34.79C42.8713 35.9849 41.5012 36.5791 41.1997 38.1065C40.9574 39.3333 40.2122 40.5772 38.9115 41.2369C38.3677 41.5134 38.3807 42.1105 38.1787 42.5972C37.6604 43.8459 37.2825 45.2073 35.9166 45.9001C35.7069 46.007 35.4421 46.3053 35.4534 46.5002C35.5671 48.3779 33.8475 49.2757 33.2036 50.7458C32.9051 51.4269 32.2174 51.6607 31.4651 51.6991C30.8141 51.7328 29.6999 52.0872 29.5975 51.8887C29.0389 50.799 28.206 49.8835 28.6041 48.3135C30.0026 42.7898 32.8305 38.0327 36.0297 33.435C39.2609 28.7925 43.1035 24.6905 47.318 20.9339C48.9487 19.4809 50.7299 18.2063 52.7332 17.2802C54.1619 16.6192 55.4994 17.061 56.8233 17.6127C57.3286 17.823 57.5223 18.2577 57.498 18.781C57.4755 19.2701 57.1307 19.4981 56.7386 19.7278C55.3413 20.5476 53.6549 21.0402 53.2461 22.9711C53.1614 23.3698 52.735 23.8417 52.2131 23.8594C51.712 23.8771 52.1622 23.1518 51.3986 22.954Z" fill="#437EF7"/>
<path id="Vector_3" fill-rule="evenodd" clip-rule="evenodd" d="M63.0581 35.2966C64.119 34.7416 64.9769 34.8226 65.4817 34.1435C65.6859 33.8689 66.1802 33.5529 65.7507 33.1647C65.4029 32.8505 64.9354 32.9898 64.6331 33.3256C64.1885 33.8205 63.798 34.3627 63.0581 35.2966ZM59.4183 38.8789C57.0554 41.318 54.8669 43.8854 53.778 47.1978C55.3828 44.2352 57.4452 41.5915 59.4183 38.8789ZM64.1494 38.7472C65.0988 39.5697 64.6792 39.8997 64.0332 40.6931C63.033 41.9208 62.1173 43.3223 60.8527 44.1711C59.235 45.2566 58.9205 47.2474 57.3787 48.3125C56.0644 49.2202 54.1164 49.1327 53.0409 48.2023C52.1089 47.3955 52.6056 46.6475 52.8828 45.9153C54.3423 42.059 56.9666 39.0223 59.9295 36.262C62.0718 34.2671 64.5129 32.6458 66.9085 30.9716C67.6853 30.4282 67.9024 30.778 67.9975 31.5271C68.0395 31.8594 67.8848 32.285 68.4171 32.5596C68.7235 32.0151 69.0222 31.491 69.3146 30.9634C69.3846 30.8369 69.5177 30.6702 69.4827 30.5711C69.0923 29.4628 69.2516 29.239 70.7584 28.9487C70.6633 29.4879 70.0038 29.6546 70.0248 30.2189C70.5098 30.7559 70.6837 29.274 71.2235 29.9916C71.6799 30.5996 71.499 31.5376 71.1996 31.7434C70.0768 32.5141 69.9834 33.9196 69.0613 34.7958C68.7801 35.0628 69.3 35.9629 68.3009 35.9594C67.7512 35.9583 67.3304 37.0525 66.6407 36.1786C66.8408 36.8438 66.0892 37.0367 65.9853 37.3731C65.6953 38.3053 64.9494 38.4411 64.1494 38.7472Z" fill="#437EF7"/>
<path id="Vector_4" fill-rule="evenodd" clip-rule="evenodd" d="M71.7163 28.1782C72.6763 28.3657 73.4396 29.1432 73.8036 27.8557C73.9636 27.2913 74.485 27.61 74.723 27.9857C75.0903 28.5669 75.5663 29.2444 75.0976 29.8619C74.5503 30.5844 73.8636 31.4769 73.0596 31.6807C72.427 31.84 72.0596 30.7932 72.133 30.0388C72.1896 29.4475 72.557 28.8525 71.7163 28.1782Z" fill="#437EF7"/>
</g>
<defs>
<clipPath id="clip0_1_13683">
<rect width="75" height="70" fill="white" transform="translate(0.5)"/>
</clipPath>
</defs>
</svg>
