<svg width="33" height="32" viewBox="0 0 33 32" fill="none" xmlns="http://www.w3.org/2000/svg">
<g id="Icon">
<g id="Icon_2">
<path d="M23.8905 14.2763L15.6874 22.4793C14.4322 20.2473 12.5861 18.4013 10.3541 17.146L20.6581 6.84194C21.1862 6.31393 21.4502 6.04992 21.7546 5.951C22.0224 5.86399 22.3109 5.86399 22.5787 5.951C22.8831 6.04992 23.1471 6.31393 23.6751 6.84195L25.9915 9.1583C26.5195 9.68632 26.7835 9.95033 26.8824 10.2548C26.9694 10.5226 26.9694 10.811 26.8824 11.0788C26.7835 11.3833 26.5195 11.6473 25.9915 12.1753L25.7761 12.3906L27.9714 14.5859C28.7524 15.367 28.7524 16.6333 27.9714 17.4143L24.4428 20.9429C23.9221 21.4636 23.0779 21.4636 22.5572 20.9429C22.0365 20.4222 22.0365 19.578 22.5572 19.0573L25.6144 16.0001L23.8905 14.2763Z" fill="#437EF7"/>
<path d="M8.51479 19.6223L7.51587 22.6191C7.08161 23.9219 6.86447 24.5733 7.01894 25.0064C7.15337 25.3834 7.45001 25.6801 7.82698 25.8145C8.26015 25.9689 8.91156 25.7518 10.2143 25.3176L13.2111 24.3186C13.3621 24.2683 13.4814 24.2285 13.581 24.1933C12.497 22.067 10.7664 20.3364 8.64016 19.2524C8.60488 19.3521 8.56511 19.4714 8.51479 19.6223Z" fill="#437EF7"/>
</g>
</g>
</svg>
