<svg width="33" height="32" viewBox="0 0 33 32" fill="none" xmlns="http://www.w3.org/2000/svg">
<g id="Icon">
<g id="Icon_2">
<path d="M4.49996 4C3.76358 4 3.16663 4.59695 3.16663 5.33333C3.16663 6.06971 3.76358 6.66667 4.49996 6.66667H5.99927L7.66976 19.1953C7.93472 21.1825 9.62986 22.6667 11.6347 22.6667H23.228C25.0564 22.6667 26.6521 21.4268 27.1039 19.6551L28.9439 12.4403C29.5888 9.91116 27.678 7.45185 25.0679 7.45185H8.79423L8.64255 6.31423C8.4659 4.98941 7.33581 4 5.99927 4H4.49996Z" fill="#437EF7"/>
<path d="M7.16663 26.6667C7.16663 25.1939 8.36053 24 9.83329 24C11.3061 24 12.5 25.1939 12.5 26.6667C12.5 28.1394 11.3061 29.3333 9.83329 29.3333C8.36053 29.3333 7.16663 28.1394 7.16663 26.6667Z" fill="#437EF7"/>
<path d="M24.5 24C23.0272 24 21.8333 25.1939 21.8333 26.6667C21.8333 28.1394 23.0272 29.3333 24.5 29.3333C25.9727 29.3333 27.1666 28.1394 27.1666 26.6667C27.1666 25.1939 25.9727 24 24.5 24Z" fill="#437EF7"/>
</g>
</g>
</svg>
