<svg width="33" height="32" viewBox="0 0 33 32" fill="none" xmlns="http://www.w3.org/2000/svg">
<g id="Icon">
<g id="Icon_2">
<path d="M2.83331 12.2667C2.83331 10.7732 2.83331 10.0265 3.12396 9.45603C3.37962 8.95426 3.78757 8.54631 4.28934 8.29065C4.85977 8 5.60651 8 7.09998 8H17.2333C18.7268 8 19.4735 8 20.044 8.29065C20.5457 8.54631 20.9537 8.95426 21.2093 9.45603C21.5 10.0265 21.5 10.7732 21.5 12.2667V19.7333C21.5 21.2268 21.5 21.9735 21.2093 22.544C20.9537 23.0457 20.5457 23.4537 20.044 23.7094C19.4735 24 18.7268 24 17.2333 24H7.09998C5.60651 24 4.85977 24 4.28934 23.7094C3.78757 23.4537 3.37962 23.0457 3.12396 22.544C2.83331 21.9735 2.83331 21.2268 2.83331 19.7333V12.2667Z" fill="#437EF7"/>
<path d="M28.1666 15.253V16.747C28.1666 18.7456 28.1666 19.7449 27.7483 20.4009C27.382 20.9751 26.81 21.3874 26.1494 21.5532C25.4333 21.7331 24.5429 21.4576 22.8333 20.8888V11.1112C24.5429 10.5424 25.4333 10.2669 26.1494 10.4468C26.81 10.6126 27.382 11.0249 27.7483 11.5991C28.1666 12.2551 28.1666 13.2544 28.1666 15.253Z" fill="#437EF7"/>
</g>
</g>
</svg>
