<svg width="25" height="24" viewBox="0 0 25 24" fill="none" xmlns="http://www.w3.org/2000/svg">
<g id="Logo">
<path id="Vector" d="M24.2628 12.276C24.2628 11.4603 24.1967 10.6401 24.0556 9.83765H12.7368V14.4586H19.2185C18.9495 15.949 18.0853 17.2674 16.8198 18.1051V21.1035H20.6868C22.9576 19.0135 24.2628 15.9269 24.2628 12.276Z" fill="white"/>
<path id="Vector_2" d="M12.7373 24.0002C15.9737 24.0002 18.7031 22.9376 20.6917 21.1033L16.8247 18.1049C15.7488 18.8369 14.3599 19.2514 12.7417 19.2514C9.61105 19.2514 6.95663 17.1393 6.00421 14.2997H2.01376V17.3906C4.05088 21.4428 8.20006 24.0002 12.7373 24.0002Z" fill="white"/>
<path id="Vector_3" d="M5.99974 14.3002C5.49707 12.8099 5.49707 11.196 5.99974 9.70569V6.61475H2.0137C0.311697 10.0055 0.311697 14.0004 2.0137 17.3912L5.99974 14.3002Z" fill="white"/>
<path id="Vector_4" d="M12.7373 4.74954C14.4481 4.72308 16.1016 5.36684 17.3407 6.54855L20.7667 3.12249C18.5973 1.08538 15.718 -0.0345881 12.7373 0.000686596C8.2001 0.000686596 4.05092 2.5581 2.01381 6.61469L5.99985 9.70563C6.94785 6.86161 9.60668 4.74954 12.7373 4.74954Z" fill="white"/>
</g>
</svg>
