<svg width="20" height="20" viewBox="0 0 20 20" fill="none" xmlns="http://www.w3.org/2000/svg">
<g id="Icon">
<g id="Icon_2">
<path d="M1.6667 5.83325H18.3333C18.3326 5.00963 18.3222 4.57791 18.1517 4.24327C17.9919 3.92966 17.7369 3.6747 17.4233 3.51491C17.0668 3.33325 16.6001 3.33325 15.6667 3.33325H4.33332C3.3999 3.33325 2.93319 3.33325 2.57667 3.51491C2.26307 3.6747 2.0081 3.92966 1.84831 4.24327C1.67781 4.57791 1.66734 5.00963 1.6667 5.83325Z" fill="white"/>
<path fill-rule="evenodd" clip-rule="evenodd" d="M18.3333 7.49992H1.66666V13.9999C1.66666 14.9333 1.66666 15.4001 1.84831 15.7566C2.0081 16.0702 2.26307 16.3251 2.57667 16.4849C2.93319 16.6666 3.3999 16.6666 4.33332 16.6666H15.6667C16.6001 16.6666 17.0668 16.6666 17.4233 16.4849C17.7369 16.3251 17.9919 16.0702 18.1517 15.7566C18.3333 15.4001 18.3333 14.9333 18.3333 13.9999V7.49992ZM4.16666 13.3333C4.16666 12.873 4.53975 12.4999 4.99999 12.4999H8.33332C8.79356 12.4999 9.16666 12.873 9.16666 13.3333C9.16666 13.7935 8.79356 14.1666 8.33332 14.1666H4.99999C4.53975 14.1666 4.16666 13.7935 4.16666 13.3333ZM11.6667 12.4999C11.2064 12.4999 10.8333 12.873 10.8333 13.3333C10.8333 13.7935 11.2064 14.1666 11.6667 14.1666H15C15.4602 14.1666 15.8333 13.7935 15.8333 13.3333C15.8333 12.873 15.4602 12.4999 15 12.4999H11.6667Z" fill="white"/>
</g>
</g>
</svg>
