<svg width="20" height="20" viewBox="0 0 20 20" fill="none" xmlns="http://www.w3.org/2000/svg">
<g id="Icon">
<g id="Icon_2">
<path d="M11.6667 9.66658C11.6667 9.19987 11.6667 8.96652 11.7575 8.78826C11.8374 8.63146 11.9649 8.50397 12.1217 8.42408C12.2999 8.33325 12.5333 8.33325 13 8.33325H17C17.4667 8.33325 17.7001 8.33325 17.8783 8.42408C18.0351 8.50397 18.1626 8.63146 18.2425 8.78826C18.3333 8.96652 18.3333 9.19987 18.3333 9.66658V10.3333C18.3333 10.8 18.3333 11.0333 18.2425 11.2116C18.1626 11.3684 18.0351 11.4959 17.8783 11.5758C17.7001 11.6666 17.4667 11.6666 17 11.6666H13C12.5333 11.6666 12.2999 11.6666 12.1217 11.5758C11.9649 11.4959 11.8374 11.3684 11.7575 11.2116C11.6667 11.0333 11.6667 10.8 11.6667 10.3333V9.66658Z" fill="white"/>
<path d="M14 3.33325H4.33334C3.39992 3.33325 2.93321 3.33325 2.57669 3.51491C2.26308 3.6747 2.00812 3.92966 1.84833 4.24327C1.66667 4.59979 1.66667 5.0665 1.66667 5.99992V13.9999C1.66667 14.9333 1.66667 15.4001 1.84833 15.7566C2.00812 16.0702 2.26308 16.3251 2.57669 16.4849C2.93321 16.6666 3.39992 16.6666 4.33334 16.6666H14C14.9334 16.6666 15.4001 16.6666 15.7567 16.4849C16.0703 16.3251 16.3252 16.0702 16.485 15.7566C16.6667 15.4001 16.6667 14.9333 16.6667 13.9999V13.3332L12.9615 13.3333C12.7629 13.3333 12.5258 13.3334 12.317 13.3164C12.0749 13.2966 11.7283 13.2458 11.365 13.0608C10.8946 12.8211 10.5122 12.4386 10.2725 11.9682C10.0874 11.605 10.0367 11.2583 10.0169 11.0163C9.99985 10.8074 9.99994 10.5703 10 10.3718V9.62801C9.99994 9.42949 9.99985 9.19239 10.0169 8.98353C10.0367 8.7415 10.0874 8.39485 10.2725 8.0316C10.5122 7.5612 10.8946 7.17875 11.365 6.93906C11.7283 6.75398 12.0749 6.70324 12.317 6.68347C12.5258 6.6664 12.7629 6.66649 12.9615 6.66657L16.6667 6.66658V5.99992C16.6667 5.0665 16.6667 4.59979 16.485 4.24327C16.3252 3.92966 16.0703 3.6747 15.7567 3.51491C15.4001 3.33325 14.9334 3.33325 14 3.33325Z" fill="white"/>
</g>
</g>
</svg>
