<svg width="20" height="20" viewBox="0 0 20 20" fill="none" xmlns="http://www.w3.org/2000/svg">
<g id="Icon">
<path id="Icon_2" fill-rule="evenodd" clip-rule="evenodd" d="M15.8333 8.30687H17.1933C17.3044 8.30687 17.36 8.30687 17.4072 8.28803C17.449 8.2714 17.4859 8.24441 17.5147 8.20954C17.5473 8.17006 17.5649 8.11666 17.6 8.00985L18.1037 6.4786C18.2705 5.97168 18.3539 5.71822 18.329 5.48318C18.3071 5.27605 18.2268 5.07968 18.0977 4.9175C17.9513 4.73346 17.7155 4.61398 17.2438 4.37502L10.7669 1.0936C10.4857 0.951139 10.3451 0.879909 10.1976 0.851875C10.067 0.827044 9.93297 0.827044 9.80236 0.851875C9.65489 0.879909 9.51429 0.951139 9.2331 1.0936L2.75616 4.37502C2.28449 4.61398 2.04865 4.73346 1.90223 4.9175C1.7732 5.07968 1.69293 5.27605 1.67099 5.48318C1.64609 5.71822 1.72947 5.97168 1.89623 6.4786L2.39997 8.00985C2.43511 8.11666 2.45268 8.17006 2.48526 8.20954C2.51404 8.24441 2.55099 8.2714 2.59273 8.28803C2.64001 8.30687 2.69556 8.30687 2.80667 8.30687H4.16666V14.8227H3.83657C3.35785 14.8227 3.11849 14.8227 2.91935 14.9075C2.74365 14.9823 2.59081 15.1032 2.47658 15.2578C2.34711 15.433 2.28906 15.6682 2.17295 16.1388L1.9586 17.0076C1.77703 17.7435 1.68625 18.1115 1.77464 18.4013C1.85211 18.6553 2.01884 18.8717 2.24323 19.0094C2.49926 19.1666 2.87358 19.1666 3.62222 19.1666H16.3778C17.1264 19.1666 17.5007 19.1666 17.7567 19.0094C17.9811 18.8717 18.1479 18.6553 18.2253 18.4013C18.3137 18.1115 18.2229 17.7435 18.0414 17.0076L17.827 16.1388C17.7109 15.6683 17.6529 15.433 17.5234 15.2578C17.4092 15.1032 17.2563 14.9823 17.0806 14.9075C16.8815 14.8227 16.6421 14.8227 16.1634 14.8227H15.8333V8.30687ZM14.1667 8.30687H10.8333V14.8227H14.1667V8.30687ZM9.16666 14.8227V8.30687H5.83333V14.8227H9.16666Z" fill="white"/>
</g>
</svg>
