<svg width="20" height="20" viewBox="0 0 20 20" fill="none" xmlns="http://www.w3.org/2000/svg">
<g id="Icon">
<g id="Icon_2">
<path d="M9.16666 0.870605C7.26103 1.04233 5.52357 1.79725 4.13411 2.95551L9.16666 7.98806V0.870605Z" fill="white"/>
<path d="M2.9556 4.13402C1.63051 5.7236 0.833328 7.76866 0.833328 9.9999C0.833328 12.2311 1.63051 14.2762 2.9556 15.8658L8.82148 9.9999L2.9556 4.13402Z" fill="white"/>
<path d="M4.13412 17.0443L10.3452 10.8332C10.6577 10.5207 10.8333 10.0968 10.8333 9.65473V0.870605C15.5054 1.29163 19.1667 5.2182 19.1667 9.9999C19.1667 15.0625 15.0626 19.1666 10 19.1666C7.76875 19.1666 5.72369 18.3694 4.13412 17.0443Z" fill="white"/>
</g>
</g>
</svg>
