<svg width="25" height="24" viewBox="0 0 25 24" fill="none" xmlns="http://www.w3.org/2000/svg">
<g id="Logo">
<g id="Logo 11">
<path id="Exclude" fill-rule="evenodd" clip-rule="evenodd" d="M2.27366 0C1.29435 0 0.499908 0.77025 0.499908 1.71919V22.2814C0.499908 23.2304 1.29444 24 2.27366 24H22.7262C23.7058 24 24.4999 23.2303 24.4999 22.2811V1.71919C24.4999 0.77025 23.7058 0 22.7262 0H2.27366ZM7.79321 9.2801V20.085H4.20183V9.2801H7.79321ZM8.02992 5.93856C8.02992 6.97544 7.25039 7.80513 5.99827 7.80513L5.99799 7.80503H5.97474C4.76939 7.80503 3.99014 6.97535 3.99014 5.93847C3.99014 4.87806 4.79292 4.07153 6.02208 4.07153C7.25039 4.07153 8.00649 4.87806 8.02992 5.93856ZM13.3722 20.085H9.78108L9.78099 20.0853C9.78099 20.0853 9.82814 10.2941 9.78127 9.28047H13.3725V10.8099C13.8498 10.0738 14.7042 9.02678 16.6092 9.02678C18.972 9.02678 20.7435 10.5711 20.7435 13.8898V20.085H17.1525V14.3053C17.1525 12.8526 16.6324 11.8619 15.3332 11.8619C14.3409 11.8619 13.75 12.53 13.4905 13.1755C13.3956 13.4058 13.3722 13.7292 13.3722 14.0517V20.085Z" fill="white"/>
</g>
</g>
</svg>
