<svg width="67" height="67" viewBox="0 0 67 67" fill="none" xmlns="http://www.w3.org/2000/svg">
<g id="Logo">
<ellipse id="BG" cx="33.2934" cy="33.4628" rx="32.7934" ry="33.4628" fill="#303030"/>
<g id="Logo_2">
<g id="Group">
<path id="Vector" d="M19.2411 27.3355V34.6992C19.2411 36.6271 22.1834 36.635 22.1834 34.6992V27.3355C22.1834 25.4077 19.2411 25.3998 19.2411 27.3355Z" fill="white"/>
<path id="Vector_2" d="M43.5224 27.3355V34.6992C43.5224 36.6271 46.4647 36.635 46.4647 34.6992V27.3355C46.4647 25.4077 43.5224 25.3998 43.5224 27.3355Z" fill="white"/>
<path id="Vector_3" d="M25.3113 21.4488V40.3873C25.3113 42.3151 28.2536 42.323 28.2536 40.3873V21.4488C28.2536 19.521 25.3113 19.5131 25.3113 21.4488Z" fill="white"/>
<path id="Vector_4" d="M37.4524 21.4488V40.3873C37.4524 42.3151 40.3947 42.323 40.3947 40.3873V21.4488C40.3947 19.521 37.4524 19.5131 37.4524 21.4488Z" fill="white"/>
<path id="Vector_5" d="M31.3818 26.6393V45.5777C31.3818 47.5055 34.324 47.5134 34.324 45.5777V26.6393C34.324 24.7114 31.3818 24.7035 31.3818 26.6393Z" fill="white"/>
</g>
</g>
</g>
</svg>
