<svg width="25" height="24" viewBox="0 0 25 24" fill="none" xmlns="http://www.w3.org/2000/svg">
<g id="Social platforms logo">
<path id="Logo" d="M14.0423 12C14.0423 15.666 11.0179 18.6428 7.27116 18.6428C3.52445 18.6428 0.5 15.666 0.5 12C0.5 8.33394 3.52445 5.35712 7.27116 5.35712C11.0179 5.35712 14.0423 8.33394 14.0423 12ZM21.4605 12C21.4605 15.446 19.9408 18.2469 18.0749 18.2469C16.2091 18.2469 14.6893 15.446 14.6893 12C14.6893 8.5539 16.2091 5.75305 18.0749 5.75305C19.9408 5.75305 21.4605 8.53923 21.4605 12ZM24.5 12C24.5 15.0941 23.9734 17.6017 23.3113 17.6017C22.6492 17.6017 22.1226 15.0941 22.1226 12C22.1226 8.90584 22.6492 6.39827 23.3113 6.39827C23.9734 6.39827 24.5 8.90584 24.5 12Z" fill="white"/>
</g>
</svg>
