<svg width="25" height="24" viewBox="0 0 25 24" fill="none" xmlns="http://www.w3.org/2000/svg">
<g id="Logo">
<path id="Exclude" fill-rule="evenodd" clip-rule="evenodd" d="M24.5 12C24.5 18.6274 19.1274 24 12.5 24C5.87258 24 0.5 18.6274 0.5 12C0.5 5.37258 5.87258 0 12.5 0C19.1274 0 24.5 5.37258 24.5 12ZM18.7456 10.2457C19.714 10.2457 20.5 11.0316 20.5 12C20.5 12.7158 20.0649 13.3334 19.4895 13.6141C19.5175 13.7825 19.5316 13.9509 19.5316 14.1334C19.5316 16.8281 16.4018 19.0035 12.5281 19.0035C8.65439 19.0035 5.52457 16.8281 5.52457 14.1334C5.52457 13.9509 5.5386 13.7685 5.56667 13.6C4.94913 13.3193 4.52808 12.7158 4.52808 12C4.52808 11.0316 5.31404 10.2457 6.28246 10.2457C6.74562 10.2457 7.18071 10.4421 7.48948 10.7369C8.6965 9.85267 10.3667 9.3053 12.2333 9.24916L13.1176 5.0667C13.1456 4.98249 13.1877 4.91232 13.2579 4.87021C13.3281 4.82811 13.4123 4.81407 13.4965 4.82811L16.4018 5.44565C16.5983 5.0246 17.0193 4.7439 17.5105 4.7439C18.1983 4.7439 18.7597 5.3053 18.7597 5.99302C18.7597 6.68074 18.1983 7.24214 17.5105 7.24214C16.8368 7.24214 16.2895 6.70881 16.2614 6.04916L13.6649 5.50179L12.8649 9.24916C14.6895 9.31934 16.3456 9.88074 17.5386 10.7369C17.8474 10.4281 18.2684 10.2457 18.7456 10.2457ZM9.74913 12C9.06141 12 8.50001 12.5614 8.50001 13.2492C8.50001 13.9369 9.06141 14.4983 9.74913 14.4983C10.4368 14.4983 10.9983 13.9369 10.9983 13.2492C10.9983 12.5614 10.4368 12 9.74913 12ZM12.514 17.4597C12.9912 17.4597 14.6193 17.4035 15.4754 16.5474C15.6018 16.4211 15.6018 16.2246 15.5035 16.0842C15.3772 15.9579 15.1667 15.9579 15.0404 16.0842C14.493 16.6176 13.3561 16.8141 12.5281 16.8141C11.7 16.8141 10.5491 16.6176 10.0158 16.0842C9.88948 15.9579 9.67895 15.9579 9.55264 16.0842C9.42632 16.2106 9.42632 16.4211 9.55264 16.5474C10.3947 17.3895 12.0368 17.4597 12.514 17.4597ZM14.0018 13.2492C14.0018 13.9369 14.5632 14.4983 15.2509 14.4983C15.9386 14.4983 16.5 13.9369 16.5 13.2492C16.5 12.5614 15.9386 12 15.2509 12C14.5632 12 14.0018 12.5614 14.0018 13.2492Z" fill="white"/>
</g>
</svg>
