<svg width="23" height="24" viewBox="0 0 23 24" fill="none" xmlns="http://www.w3.org/2000/svg">
<g id="Logo">
<g id="Artboard-5-8">
<g id="Group-3-7">
<g id="Group-24">
<path id="Fill-3-Copy-4-1" fill-rule="evenodd" clip-rule="evenodd" d="M6.39692 21.9307C6.05227 21.9157 5.18579 21.764 4.30777 21.5332C3.43656 21.3082 2.8414 21.0078 2.8414 21.0078C2.51393 20.8438 2.39442 20.5851 2.34853 20.3178C2.36253 20.323 2.23758 19.4783 2.23758 17.8444C2.23758 16.604 2.30492 15.9394 2.3357 15.7295C2.3687 15.5085 2.48016 15.3275 2.77756 15.3412C3.07499 15.3552 3.47932 15.3481 4.43023 15.5141C5.56415 15.7167 6.11978 15.8878 6.38947 15.9771C6.63338 16.0612 6.89019 16.245 6.9398 16.5892C6.9398 16.5892 7.07114 17.4938 7.06918 18.8653C7.07113 19.9754 6.98802 21.0752 6.95021 21.4308C6.91496 21.7601 6.74157 21.9458 6.39692 21.9307ZM11.5308 18.1162C11.5305 17.92 11.4475 17.7372 11.2877 17.5925L8.35007 14.8738C8.01298 14.5403 7.61189 14.3324 7.12389 14.2354C7.12389 14.2354 6.0156 13.9772 4.36577 13.7162C2.71591 13.4552 2.28506 13.4847 2.28506 13.4847C0.822339 13.4847 0.769624 14.9567 0.754518 15.1053C0.718389 15.4606 0.632446 16.4021 0.632446 17.7128C0.632446 19.2596 0.702173 20.3314 0.786351 20.9866C0.914312 21.9865 1.72805 22.4554 2.1026 22.633C2.19753 22.6778 3.21387 23.0839 4.24444 23.3838C4.939 23.5863 6.05199 23.8823 6.57339 23.9601C6.7447 23.986 7.75186 24.1493 8.22765 23.554L11.3493 19.7343C11.4787 19.5574 11.5308 19.4854 11.5308 19.2146V18.1162ZM18.3535 12.5444C17.9107 12.502 17.4653 12.4929 17.0211 12.517L10.0002 13.1373C10.0002 13.1373 9.53479 13.2043 9.26966 13.5381C9.06457 13.7964 9.02145 14.0119 9.02145 14.0119C9.11433 14.099 9.15188 14.1347 9.20306 14.179L11.9755 16.8479C12.2855 17.1352 12.4655 17.4147 12.4655 17.833V19.3363C12.4655 19.6036 12.441 19.8282 12.2836 20.0298L10.7967 21.9362L12.2927 22.4839C12.8604 22.6605 13.3876 22.6554 13.9802 22.5703L20.4202 21.1749C20.4202 21.1749 21.5814 20.8833 21.5816 19.8422V16.1385C21.5816 16.067 21.5377 16.0055 21.4587 16.0206L17.3465 16.7835C17.193 16.8129 17.0969 16.937 17.0969 17.0761V18.8702C17.0969 18.9774 17.229 19.0638 17.3465 19.0389L18.6351 18.755C18.7021 18.7376 18.7538 18.784 18.7564 18.8702V19.449C18.7503 19.5681 18.6512 19.6503 18.5115 19.6805L17.0531 19.9758C17.0543 19.9715 16.0743 20.2113 16.0743 19.223V16.9347C16.0743 15.9361 16.8414 15.835 16.8414 15.835L21.3692 15.0111C21.4871 14.9901 21.5816 14.8914 21.5816 14.7846V13.8525C21.5773 12.8233 20.5246 12.7596 20.5246 12.7596L18.3535 12.5444ZM9.93833 2.83558C11.6223 2.90319 12.8988 4.41252 12.8112 6.24803C12.7141 8.0783 11.2546 9.53817 9.63223 9.47511C7.94863 9.40748 6.72831 7.88335 6.81548 6.04817C6.91263 4.21793 8.31596 2.77252 9.93833 2.83558ZM16.722 7.12886C16.791 5.87743 17.7371 4.88835 18.854 4.92845C19.9158 4.97346 20.7636 6.03601 20.7068 7.24676C20.6383 8.5018 19.6774 9.45325 18.563 9.41974C17.4984 9.36776 16.6657 8.34356 16.722 7.12886ZM22.3675 7.29242C22.3645 4.82225 20.4173 2.83598 18.0204 2.83598C16.6213 2.83598 15.352 3.53489 14.5305 4.57226C13.8994 1.93552 11.5673 -0.00729417 8.77523 2.05861e-05C5.44299 0.0088144 2.76393 2.72623 2.77506 6.07702C2.78621 9.46183 5.47964 12.2119 8.77523 12.2025C8.96503 12.2004 18.0464 11.6247 18.0204 11.6242C20.6378 11.4109 22.3809 9.70515 22.3675 7.29242Z" fill="white"/>
</g>
</g>
</g>
</g>
</svg>
