<svg width="25" height="24" viewBox="0 0 25 24" fill="none" xmlns="http://www.w3.org/2000/svg">
<g id="Logo">
<path id="Exclude" fill-rule="evenodd" clip-rule="evenodd" d="M24.5 12C24.5 18.6274 19.1274 24 12.5 24C5.87258 24 0.5 18.6274 0.5 12C0.5 5.37258 5.87258 0 12.5 0C19.1274 0 24.5 5.37258 24.5 12ZM12.9301 8.85905C11.763 9.34452 9.43026 10.3493 5.93201 11.8734C5.36395 12.0993 5.06638 12.3203 5.03929 12.5364C4.99351 12.9016 5.45084 13.0454 6.0736 13.2412C6.15831 13.2679 6.24608 13.2955 6.33606 13.3247C6.94876 13.5239 7.77295 13.7569 8.20141 13.7662C8.59007 13.7745 9.02385 13.6143 9.50276 13.2855C12.7713 11.0791 14.4585 9.96393 14.5644 9.93989C14.6392 9.92293 14.7427 9.9016 14.8129 9.96397C14.8831 10.0263 14.8762 10.1444 14.8687 10.1761C14.8234 10.3693 13.0282 12.0382 12.0992 12.9019C11.8096 13.1712 11.6042 13.3621 11.5622 13.4058C11.4681 13.5035 11.3722 13.5959 11.2801 13.6847C10.7109 14.2335 10.284 14.6449 11.3037 15.3169C11.7937 15.6398 12.1859 15.9069 12.577 16.1732C13.0043 16.4642 13.4304 16.7544 13.9817 17.1158C14.1222 17.2079 14.2563 17.3035 14.387 17.3966C14.8842 17.7511 15.3309 18.0695 15.8827 18.0188C16.2034 17.9892 16.5346 17.6877 16.7028 16.7885C17.1003 14.6633 17.8818 10.0586 18.0623 8.1611C18.0782 7.99485 18.0583 7.78209 18.0423 7.6887C18.0263 7.5953 17.9929 7.46223 17.8715 7.36372C17.7277 7.24706 17.5058 7.22246 17.4065 7.22421C16.9551 7.23216 16.2627 7.47294 12.9301 8.85905Z" fill="white"/>
</g>
</svg>
