<svg width="23" height="24" viewBox="0 0 23 24" fill="none" xmlns="http://www.w3.org/2000/svg">
<g id="Logo">
<path id="Vector" d="M16.6002 8.66347C18.1436 9.77064 20.0343 10.4221 22.0763 10.4221V6.47861C21.6898 6.47869 21.3044 6.43825 20.9263 6.35786V9.46193C18.8844 9.46193 16.994 8.81049 15.4502 7.7034V15.7509C15.4502 19.7766 12.1983 23.0399 8.1871 23.0399C6.69042 23.0399 5.29932 22.5858 4.14374 21.807C5.46265 23.1604 7.30197 24 9.33686 24C13.3483 24 16.6004 20.7367 16.6004 16.7108V8.66347H16.6002ZM18.0189 4.68499C17.2302 3.82023 16.7123 2.70267 16.6002 1.46717V0.959961H15.5104C15.7847 2.53028 16.7204 3.87187 18.0189 4.68499ZM6.68083 18.7178C6.24015 18.1379 6.00201 17.4286 6.00308 16.6992C6.00308 14.858 7.49048 13.3651 9.32554 13.3651C9.66753 13.365 10.0075 13.4176 10.3334 13.5214V9.48977C9.95251 9.43739 9.56811 9.41515 9.18387 9.4233V12.5613C8.85771 12.4575 8.51761 12.4048 8.17553 12.4051C6.34048 12.4051 4.85315 13.8979 4.85315 15.7393C4.85315 17.0414 5.59661 18.1687 6.68083 18.7178Z" fill="white"/>
<path id="Vector_2" d="M15.4502 7.70332C16.994 8.81041 18.8844 9.46185 20.9263 9.46185V6.35778C19.7865 6.11414 18.7775 5.5164 18.0189 4.68499C16.7203 3.87179 15.7848 2.5302 15.5104 0.959961H12.6479V16.7106C12.6414 18.5468 11.1565 20.0336 9.32539 20.0336C8.24634 20.0336 7.28771 19.5174 6.68059 18.7178C5.59646 18.1687 4.853 17.0413 4.853 15.7394C4.853 13.8981 6.34032 12.4052 8.17538 12.4052C8.52697 12.4052 8.86584 12.4602 9.18372 12.5614V9.42338C5.24298 9.50509 2.07367 12.7365 2.07367 16.7107C2.07367 18.6946 2.8629 20.4931 4.14383 21.8071C5.29942 22.5858 6.69052 23.04 8.18719 23.04C12.1985 23.04 15.4503 19.7765 15.4503 15.7509V7.70332H15.4502Z" fill="white"/>
<path id="Vector_3" d="M20.9263 6.3578V5.51848C19.8985 5.52005 18.8909 5.23119 18.0189 4.68493C18.7908 5.53306 19.8073 6.11787 20.9263 6.3578ZM15.5105 0.959983C15.4843 0.809911 15.4642 0.658851 15.4503 0.507214V0H11.4978V15.7508C11.4915 17.5868 10.0067 19.0736 8.1754 19.0736C7.63777 19.0736 7.13015 18.9455 6.68061 18.7179C7.28773 19.5174 8.24636 20.0336 9.32541 20.0336C11.1564 20.0336 12.6415 18.5469 12.6479 16.7107V0.959983H15.5105ZM9.18391 9.42341V8.52989C8.85364 8.48459 8.52068 8.46186 8.1873 8.46202C4.17568 8.46194 0.923767 11.7254 0.923767 15.7508C0.923767 18.2745 2.20183 20.4987 4.14394 21.807C2.86301 20.493 2.07377 18.6944 2.07377 16.7106C2.07377 12.7365 5.243 9.50511 9.18391 9.42341Z" fill="white"/>
</g>
</svg>
